<mxfile host="app.diagrams.net" agent="Mozilla/5.0 (Windows NT 10.0; Win64; x64) AppleWebKit/537.36 (KHTML, like Gecko) Chrome/132.0.0.0 Safari/537.36" version="28.0.7">
  <diagram name="Página-1" id="DKwzM4tfj5VUfVZ2yUFM">
    <mxGraphModel dx="1426" dy="1946" grid="1" gridSize="10" guides="1" tooltips="1" connect="1" arrows="1" fold="1" page="1" pageScale="1" pageWidth="827" pageHeight="1169" math="0" shadow="0">
      <root>
        <mxCell id="0" />
        <mxCell id="1" parent="0" />
        <mxCell id="42JWXitrfy8it00ZVDfw-1" value="Actor" style="shape=umlActor;verticalLabelPosition=bottom;verticalAlign=top;html=1;" vertex="1" parent="1">
          <mxGeometry x="120" y="220" width="30" height="60" as="geometry" />
        </mxCell>
        <mxCell id="42JWXitrfy8it00ZVDfw-2" value="" style="rounded=0;whiteSpace=wrap;html=1;" vertex="1" parent="1">
          <mxGeometry x="240" y="-50" width="860" height="1251" as="geometry" />
        </mxCell>
        <mxCell id="42JWXitrfy8it00ZVDfw-4" value="&lt;span id=&quot;docs-internal-guid-2376f59f-7fff-6481-4a43-9a1930fdbd82&quot;&gt;&lt;span style=&quot;font-family: &amp;quot;Times New Roman&amp;quot;, serif; color: rgb(0, 0, 0); background-color: transparent; font-variant-numeric: normal; font-variant-east-asian: normal; font-variant-alternates: normal; font-variant-position: normal; font-variant-emoji: normal; vertical-align: baseline; white-space-collapse: preserve;&quot;&gt;&lt;font&gt;Gerar a Visualização do Mapa Interativo do Campus&lt;/font&gt;&lt;/span&gt;&lt;/span&gt;" style="ellipse;whiteSpace=wrap;html=1;fillColor=#d5e8d4;strokeColor=#82b366;fillStyle=auto;" vertex="1" parent="1">
          <mxGeometry x="260" y="-30" width="150" height="80" as="geometry" />
        </mxCell>
        <mxCell id="42JWXitrfy8it00ZVDfw-6" value="&lt;span id=&quot;docs-internal-guid-f24437e0-7fff-d3ac-d5e2-8a2f636085c8&quot;&gt;&lt;span style=&quot;font-family: &amp;quot;Times New Roman&amp;quot;, serif; background-color: transparent; font-variant-numeric: normal; font-variant-east-asian: normal; font-variant-alternates: normal; font-variant-position: normal; font-variant-emoji: normal; vertical-align: baseline; white-space-collapse: preserve;&quot;&gt;&lt;font&gt;Acesso aos Ambientes em 360°&lt;/font&gt;&lt;/span&gt;&lt;/span&gt;" style="ellipse;whiteSpace=wrap;html=1;fillColor=#d5e8d4;strokeColor=#82b366;fillStyle=auto;" vertex="1" parent="1">
          <mxGeometry x="480" y="-30" width="150" height="80" as="geometry" />
        </mxCell>
        <mxCell id="42JWXitrfy8it00ZVDfw-7" value="&lt;span id=&quot;docs-internal-guid-231aecde-7fff-781b-ef32-82b54bf53059&quot;&gt;&lt;p style=&quot;line-height:1.7999999999999998;margin-right: 0.20669291338586504pt;text-align: justify;margin-top:0pt;margin-bottom:0pt;&quot; dir=&quot;ltr&quot;&gt;&lt;span style=&quot;font-family: &amp;quot;Times New Roman&amp;quot;, serif; background-color: transparent; font-variant-numeric: normal; font-variant-east-asian: normal; font-variant-alternates: normal; font-variant-position: normal; font-variant-emoji: normal; vertical-align: baseline; white-space-collapse: preserve;&quot;&gt;&lt;font&gt;Cadastro de Informações&lt;/font&gt;&lt;/span&gt;&lt;/p&gt;&lt;/span&gt;" style="ellipse;whiteSpace=wrap;html=1;fillColor=#d5e8d4;strokeColor=#82b366;fillStyle=auto;" vertex="1" parent="1">
          <mxGeometry x="700" y="-30" width="150" height="80" as="geometry" />
        </mxCell>
        <mxCell id="42JWXitrfy8it00ZVDfw-8" value="&lt;span id=&quot;docs-internal-guid-2a21bf90-7fff-7d67-aaf7-011b39197655&quot;&gt;&lt;span style=&quot;font-family: &amp;quot;Times New Roman&amp;quot;, serif; background-color: transparent; font-variant-numeric: normal; font-variant-east-asian: normal; font-variant-alternates: normal; font-variant-position: normal; font-variant-emoji: normal; vertical-align: baseline; white-space-collapse: preserve;&quot;&gt;&lt;font&gt;Disponibilizar uma aba de informações&lt;/font&gt;&lt;/span&gt;&lt;/span&gt;" style="ellipse;whiteSpace=wrap;html=1;fillColor=#d5e8d4;strokeColor=#82b366;fillStyle=auto;" vertex="1" parent="1">
          <mxGeometry x="260" y="100" width="150" height="80" as="geometry" />
        </mxCell>
        <mxCell id="42JWXitrfy8it00ZVDfw-9" value="&lt;span id=&quot;docs-internal-guid-4f954907-7fff-11cc-2c32-3baa7ba16f77&quot;&gt;&lt;span style=&quot;font-family: &amp;quot;Times New Roman&amp;quot;, serif; background-color: transparent; font-variant-numeric: normal; font-variant-east-asian: normal; font-variant-alternates: normal; font-variant-position: normal; font-variant-emoji: normal; vertical-align: baseline; white-space-collapse: preserve;&quot;&gt;&lt;font&gt;Exibição de Informações Contextuais&lt;/font&gt;&lt;/span&gt;&lt;/span&gt;" style="ellipse;whiteSpace=wrap;html=1;fillColor=#d5e8d4;strokeColor=#82b366;fillStyle=auto;" vertex="1" parent="1">
          <mxGeometry x="920" y="-30" width="150" height="80" as="geometry" />
        </mxCell>
        <mxCell id="42JWXitrfy8it00ZVDfw-10" value="&lt;span id=&quot;docs-internal-guid-c27e3f41-7fff-bd98-fa2d-bf7fd519aecd&quot;&gt;&lt;span style=&quot;font-family: &amp;quot;Times New Roman&amp;quot;, serif; background-color: transparent; font-variant-numeric: normal; font-variant-east-asian: normal; font-variant-alternates: normal; font-variant-position: normal; font-variant-emoji: normal; vertical-align: baseline; white-space-collapse: preserve;&quot;&gt;&lt;font&gt;Cadastro de Blocos&lt;/font&gt;&lt;/span&gt;&lt;/span&gt;" style="ellipse;whiteSpace=wrap;html=1;fillColor=#d5e8d4;strokeColor=#82b366;fillStyle=auto;" vertex="1" parent="1">
          <mxGeometry x="480" y="100" width="150" height="80" as="geometry" />
        </mxCell>
        <mxCell id="42JWXitrfy8it00ZVDfw-11" value="&lt;span id=&quot;docs-internal-guid-f903d0a3-7fff-7130-a1cf-d41139294f35&quot;&gt;&lt;span style=&quot;font-family: &amp;quot;Times New Roman&amp;quot;, serif; background-color: transparent; font-variant-numeric: normal; font-variant-east-asian: normal; font-variant-alternates: normal; font-variant-position: normal; font-variant-emoji: normal; vertical-align: baseline; white-space-collapse: preserve;&quot;&gt;&lt;font&gt;Exibir Bloco&lt;/font&gt;&lt;/span&gt;&lt;/span&gt;" style="ellipse;whiteSpace=wrap;html=1;fillColor=#d5e8d4;strokeColor=#82b366;fillStyle=auto;" vertex="1" parent="1">
          <mxGeometry x="920" y="100" width="150" height="80" as="geometry" />
        </mxCell>
        <mxCell id="42JWXitrfy8it00ZVDfw-12" value="&lt;span id=&quot;docs-internal-guid-57134a0b-7fff-287f-7031-dcdd36b60766&quot;&gt;&lt;span style=&quot;font-family: &amp;quot;Times New Roman&amp;quot;, serif; background-color: transparent; font-variant-numeric: normal; font-variant-east-asian: normal; font-variant-alternates: normal; font-variant-position: normal; font-variant-emoji: normal; vertical-align: baseline; white-space-collapse: preserve;&quot;&gt;&lt;font&gt;Cadastro de Locais&lt;/font&gt;&lt;/span&gt;&lt;/span&gt;" style="ellipse;whiteSpace=wrap;html=1;fillColor=#d5e8d4;strokeColor=#82b366;fillStyle=auto;" vertex="1" parent="1">
          <mxGeometry x="700" y="100" width="150" height="80" as="geometry" />
        </mxCell>
        <mxCell id="42JWXitrfy8it00ZVDfw-13" value="&lt;span id=&quot;docs-internal-guid-fb038e38-7fff-4dea-e3ec-efc2f691eba1&quot;&gt;&lt;span style=&quot;font-family: &amp;quot;Times New Roman&amp;quot;, serif; background-color: transparent; font-variant-numeric: normal; font-variant-east-asian: normal; font-variant-alternates: normal; font-variant-position: normal; font-variant-emoji: normal; vertical-align: baseline; white-space-collapse: preserve;&quot;&gt;&lt;font&gt;Selecionar um local&lt;/font&gt;&lt;/span&gt;&lt;/span&gt;" style="ellipse;whiteSpace=wrap;html=1;fillColor=#d5e8d4;strokeColor=#82b366;fillStyle=auto;" vertex="1" parent="1">
          <mxGeometry x="700" y="230" width="150" height="80" as="geometry" />
        </mxCell>
        <mxCell id="42JWXitrfy8it00ZVDfw-14" value="&lt;span id=&quot;docs-internal-guid-c9275b83-7fff-f508-3f18-4c6a1340f712&quot;&gt;&lt;span style=&quot;font-family: &amp;quot;Times New Roman&amp;quot;, serif; background-color: transparent; font-variant-numeric: normal; font-variant-east-asian: normal; font-variant-alternates: normal; font-variant-position: normal; font-variant-emoji: normal; vertical-align: baseline; white-space-collapse: preserve;&quot;&gt;&lt;font&gt;Procurar por um local&lt;/font&gt;&lt;/span&gt;&lt;/span&gt;" style="ellipse;whiteSpace=wrap;html=1;fillColor=#d5e8d4;strokeColor=#82b366;fillStyle=auto;" vertex="1" parent="1">
          <mxGeometry x="480" y="230" width="150" height="80" as="geometry" />
        </mxCell>
        <mxCell id="42JWXitrfy8it00ZVDfw-15" value="&lt;span id=&quot;docs-internal-guid-2de2e511-7fff-af50-b191-71acd4dcefd2&quot;&gt;&lt;span style=&quot;font-family: &amp;quot;Times New Roman&amp;quot;, serif; background-color: transparent; font-variant-numeric: normal; font-variant-east-asian: normal; font-variant-alternates: normal; font-variant-position: normal; font-variant-emoji: normal; vertical-align: baseline; white-space-collapse: preserve;&quot;&gt;&lt;font&gt;Navegar pelo Bloco&lt;/font&gt;&lt;/span&gt;&lt;/span&gt;" style="ellipse;whiteSpace=wrap;html=1;fillColor=#d5e8d4;strokeColor=#82b366;fillStyle=auto;" vertex="1" parent="1">
          <mxGeometry x="260" y="230" width="150" height="80" as="geometry" />
        </mxCell>
        <mxCell id="42JWXitrfy8it00ZVDfw-16" value="&lt;span id=&quot;docs-internal-guid-f60db369-7fff-7684-57ba-776f3e4cb593&quot;&gt;&lt;span style=&quot;font-family: &amp;quot;Times New Roman&amp;quot;, serif; background-color: transparent; font-variant-numeric: normal; font-variant-east-asian: normal; font-variant-alternates: normal; font-variant-position: normal; font-variant-emoji: normal; vertical-align: baseline; white-space-collapse: preserve;&quot;&gt;&lt;font&gt;Proporcionar envio de feedback&lt;/font&gt;&lt;/span&gt;&lt;/span&gt;" style="ellipse;whiteSpace=wrap;html=1;fillColor=#d5e8d4;strokeColor=#82b366;fillStyle=auto;" vertex="1" parent="1">
          <mxGeometry x="920" y="230" width="150" height="80" as="geometry" />
        </mxCell>
        <mxCell id="42JWXitrfy8it00ZVDfw-17" value="&lt;span id=&quot;docs-internal-guid-271f6d08-7fff-dcd5-a9e2-8c8246d5975a&quot;&gt;&lt;span style=&quot;font-family: &amp;quot;Times New Roman&amp;quot;, serif; background-color: transparent; font-variant-numeric: normal; font-variant-east-asian: normal; font-variant-alternates: normal; font-variant-position: normal; font-variant-emoji: normal; vertical-align: baseline; white-space-collapse: preserve;&quot;&gt;&lt;font&gt;Direcionar usuário ao site&lt;/font&gt;&lt;/span&gt;&lt;/span&gt;" style="ellipse;whiteSpace=wrap;html=1;fillColor=#d5e8d4;strokeColor=#82b366;fillStyle=auto;" vertex="1" parent="1">
          <mxGeometry x="260" y="360" width="150" height="80" as="geometry" />
        </mxCell>
        <mxCell id="42JWXitrfy8it00ZVDfw-18" value="&lt;span id=&quot;docs-internal-guid-fb038e38-7fff-4dea-e3ec-efc2f691eba1&quot;&gt;&lt;span style=&quot;font-family: &amp;quot;Times New Roman&amp;quot;, serif; background-color: transparent; font-variant-numeric: normal; font-variant-east-asian: normal; font-variant-alternates: normal; font-variant-position: normal; font-variant-emoji: normal; vertical-align: baseline; white-space-collapse: preserve;&quot;&gt;&lt;font&gt;Selecionar um local&lt;/font&gt;&lt;/span&gt;&lt;/span&gt;" style="ellipse;whiteSpace=wrap;html=1;fillColor=#d5e8d4;strokeColor=#82b366;fillStyle=auto;" vertex="1" parent="1">
          <mxGeometry x="480" y="360" width="150" height="80" as="geometry" />
        </mxCell>
        <mxCell id="42JWXitrfy8it00ZVDfw-19" value="&lt;span id=&quot;docs-internal-guid-fb038e38-7fff-4dea-e3ec-efc2f691eba1&quot;&gt;&lt;span style=&quot;font-family: &amp;quot;Times New Roman&amp;quot;, serif; background-color: transparent; font-variant-numeric: normal; font-variant-east-asian: normal; font-variant-alternates: normal; font-variant-position: normal; font-variant-emoji: normal; vertical-align: baseline; white-space-collapse: preserve;&quot;&gt;&lt;font&gt;Selecionar um local&lt;/font&gt;&lt;/span&gt;&lt;/span&gt;" style="ellipse;whiteSpace=wrap;html=1;fillColor=#d5e8d4;strokeColor=#82b366;fillStyle=auto;" vertex="1" parent="1">
          <mxGeometry x="700" y="360" width="150" height="80" as="geometry" />
        </mxCell>
        <mxCell id="42JWXitrfy8it00ZVDfw-20" value="&lt;span id=&quot;docs-internal-guid-fb038e38-7fff-4dea-e3ec-efc2f691eba1&quot;&gt;&lt;span style=&quot;font-family: &amp;quot;Times New Roman&amp;quot;, serif; background-color: transparent; font-variant-numeric: normal; font-variant-east-asian: normal; font-variant-alternates: normal; font-variant-position: normal; font-variant-emoji: normal; vertical-align: baseline; white-space-collapse: preserve;&quot;&gt;&lt;font&gt;Selecionar um local&lt;/font&gt;&lt;/span&gt;&lt;/span&gt;" style="ellipse;whiteSpace=wrap;html=1;fillColor=#d5e8d4;strokeColor=#82b366;fillStyle=auto;" vertex="1" parent="1">
          <mxGeometry x="920" y="360" width="150" height="80" as="geometry" />
        </mxCell>
      </root>
    </mxGraphModel>
  </diagram>
</mxfile>
